# xmcd CD database file
#
# Track frame offsets:
#	150
#	11030
#	20320
#	32295
#	41802
#	54502
#	64392
#	74072
#	85807
#	96227
#	108077
#	118387
#	127905
#	137907
#	153420
#	167500
#
# Disc length: 2429 seconds
#
# Revision: 0
# Processed by: cddbd v1.5.2PL0 Copyright (c) Steve Scherf et al.
# Submitted via: CDex 1.70beta1
#
DISCID=d8097b10
DTITLE=Skeeter Davis - The Pop Hits Collection - Volume Two
DYEAR=2006
DGENRE=Country
TTITLE0=Somebody Loves You
TTITLE1=Blueberry Hills
TTITLE2=It Was Only A Heart
TTITLE3=How Much Can A Lonely Heart Stand
TTITLE4=He Says The Same Things To Me
TTITLE5=I Don't Want To Love You (But I Do)
TTITLE6=Sad Sad World
TTITLE7=What I Go Thru (To Keep Holding On To You)
TTITLE8=It's A Crazy World
TTITLE9=Instinct For Survival
TTITLE10=There's A Fool Born Every Minute
TTITLE11=Timothy
TTITLE12=I Didn't Cry Today
TTITLE13=Both Sides Now
TTITLE14=The End Of The World [1969 version]
TTITLE15=One Tin Soldier (Theme from "THE LEGEND OF BILLY JACK")
EXTD=YEAR: 2006
EXTT0=
EXTT1=
EXTT2=
EXTT3=
EXTT4=
EXTT5=
EXTT6=
EXTT7=
EXTT8=
EXTT9=
EXTT10=
EXTT11=
EXTT12=
EXTT13=
EXTT14=
EXTT15=
PLAYORDER=
